<svg xmlns="http://www.w3.org/2000/svg" xmlns:xlink="http://www.w3.org/1999/xlink">
  <symbol id="logo" viewBox="0 0 313 96">
    <!-- recommended fill: raisin #2C0022 or white -->
    <path d="M313 22.553h-28.277v15.196H313v20.02h-28.277v15.679H313v20.02h-52.065V2.534H313v20.019zM249.653 2.534v20.02h-19.538v70.915h-23.788V22.553H186.79V2.534h62.864zm-104.128 0h16.124l34.83 90.934h-25.365l-7.018-20.02h-18.57v-17.97h12.27l-12.27-35.008V2.534zm-67.412 0H101.9v70.913h32.153v20.021h-55.94V2.534zM31.554 21.83c-1.942 1.446-2.912 3.337-2.912 5.668 0 1.61.485 2.936 1.455 3.98.972 1.046 2.246 1.95 3.824 2.715 1.578.763 3.356 1.426 5.34 1.99a142.44 142.44 0 0 1 5.886 1.808c7.767 2.574 13.45 6.01 17.051 10.311 3.6 4.302 5.4 9.91 5.4 16.824 0 4.664-.788 8.886-2.367 12.664-1.576 3.78-3.883 7.015-6.916 9.709-3.034 2.694-6.757 4.783-11.165 6.271C42.738 95.256 37.743 96 32.16 96 20.59 96 9.87 92.584 0 85.75l10.194-19.056c3.56 3.135 7.08 5.469 10.559 6.995 3.477 1.528 6.918 2.292 10.316 2.292 3.883 0 6.775-.884 8.676-2.654 1.901-1.767 2.853-3.778 2.853-6.03 0-1.365-.242-2.551-.729-3.558-.485-1.004-1.294-1.93-2.426-2.774-1.134-.843-2.609-1.628-4.43-2.35-1.82-.725-4.025-1.528-6.614-2.414a131.902 131.902 0 0 1-9.042-3.195c-2.955-1.164-5.582-2.714-7.89-4.643-2.304-1.93-4.166-4.361-5.58-7.298-1.417-2.933-2.124-6.65-2.124-11.155 0-4.501.747-8.582 2.244-12.24 1.497-3.66 3.599-6.794 6.311-9.409 2.71-2.61 6.027-4.643 9.952-6.09C26.194.724 30.584 0 35.438 0c4.53 0 9.263.624 14.2 1.87a62.986 62.986 0 0 1 14.2 5.488L54.37 25.81c-2.59-2.09-5.18-3.637-7.767-4.643-2.59-1.006-5.097-1.507-7.525-1.507-3.075 0-5.581.723-7.524 2.17z"/>
  </symbol>

  <symbol id="splus" viewBox="0 0 639 96">
    <use xlink:href="#logo" width="313" height="96"/>
    <!-- "PLUS" -->
    <path fill="#ffad04" d="M436.728 1.794v71.482h28.346v20.181h-51.988V1.794h23.642zm63.371 0v49.217c0 2.642.102 5.341.307 8.104.204 2.76.818 5.262 1.843 7.502 1.022 2.24 2.642 4.062 4.853 5.46 2.212 1.403 5.324 2.101 9.337 2.101s7.104-.698 9.276-2.1c2.168-1.399 3.788-3.221 4.853-5.46 1.063-2.24 1.7-4.744 1.904-7.503a110.6 110.6 0 0 0 .308-8.104V1.794h23.957v52.458c0 14.085-3.298 24.368-9.89 30.85-6.594 6.482-16.731 9.723-30.408 9.723-13.679 0-23.834-3.24-30.469-9.723-6.634-6.482-9.951-16.765-9.951-30.85V1.794h24.08zM625.852 25.81c-2.555-2.09-5.107-3.637-7.66-4.643-2.554-1.005-5.027-1.508-7.42-1.508-3.034 0-5.506.724-7.421 2.171-1.915 1.447-2.873 3.337-2.873 5.667 0 1.61.48 2.937 1.437 3.981.957 1.046 2.214 1.95 3.77 2.714 1.556.765 3.31 1.428 5.266 1.99 1.954.563 3.89 1.166 5.805 1.809 7.66 2.575 13.264 6.01 16.815 10.312 3.55 4.301 5.326 9.91 5.326 16.822 0 4.665-.778 8.887-2.334 12.665-1.555 3.781-3.83 7.015-6.822 9.708-2.992 2.696-6.663 4.785-11.01 6.272-4.35 1.487-9.276 2.231-14.782 2.231-11.41 0-21.982-3.417-31.716-10.251l10.053-19.056c3.51 3.136 6.982 5.469 10.413 6.995 3.43 1.529 6.822 2.292 10.173 2.292 3.83 0 6.682-.884 8.558-2.653 1.874-1.768 2.812-3.779 2.812-6.032 0-1.365-.24-2.55-.718-3.556-.479-1.005-1.277-1.93-2.394-2.774-1.118-.844-2.573-1.628-4.368-2.352-1.795-.724-3.97-1.527-6.523-2.412a129.793 129.793 0 0 1-8.916-3.196c-2.914-1.165-5.506-2.714-7.78-4.643-2.274-1.93-4.11-4.361-5.505-7.297-1.397-2.934-2.095-6.652-2.095-11.155 0-4.503.737-8.582 2.214-12.242 1.476-3.657 3.55-6.792 6.224-9.407 2.672-2.612 5.943-4.643 9.814-6.09C598.065.724 602.393 0 607.181 0c4.468 0 9.135.624 14.003 1.87a61.555 61.555 0 0 1 14.003 5.487l-9.335 18.452zm-271.11 18.729h7.805c8.646 0 12.97-3.792 12.97-11.376s-4.324-11.377-12.97-11.377h-7.805v22.753zM354.984 94H331V2h38.178c10.358 0 18.293 2.684 23.8 8.053 5.505 5.369 8.259 12.934 8.259 22.696 0 9.76-2.754 17.325-8.26 22.694s-13.44 8.053-23.8 8.053h-14.193V94z"/>
  </symbol>

  <symbol id="podcasts" viewBox="0 0 996 96">
    <!-- "SLATE": override color in css with "color" -->
    <use xlink:href="#logo" width="313" height="96" fill="currentColor"/>
    <!-- "PODCASTS", recommended fill: cherry #FF4900 -->
    <path d="M354.742 44.517h7.805c8.646 0 12.97-3.791 12.97-11.376 0-7.583-4.324-11.377-12.97-11.377h-7.805v22.753zm.242 49.462H331v-92h38.178c10.358 0 18.293 2.685 23.8 8.053 5.505 5.37 8.259 12.934 8.259 22.696 0 9.76-2.754 17.326-8.26 22.694-5.506 5.369-13.44 8.053-23.8 8.053h-14.193V93.98zM432.869 48c0 3.618.684 6.955 2.056 10.01 1.369 3.057 3.224 5.71 5.559 7.96 2.339 2.251 5.06 4 8.163 5.246 3.099 1.248 6.383 1.87 9.849 1.87 3.465 0 6.75-.622 9.853-1.87a25.906 25.906 0 0 0 8.22-5.246c2.374-2.25 4.25-4.903 5.618-7.96 1.373-3.055 2.057-6.392 2.057-10.01 0-3.618-.684-6.953-2.057-10.01-1.368-3.055-3.244-5.708-5.619-7.96-2.379-2.25-5.12-3.998-8.219-5.246-3.103-1.245-6.388-1.87-9.853-1.87-3.466 0-6.75.625-9.85 1.87-3.103 1.248-5.823 2.996-8.162 5.246-2.335 2.252-4.19 4.905-5.559 7.96-1.372 3.057-2.056 6.392-2.056 10.01zm-24.778 0c0-6.754 1.248-13.044 3.747-18.875 2.496-5.827 5.961-10.914 10.397-15.256 4.431-4.341 9.728-7.736 15.894-10.19C444.292 1.226 451.082 0 458.496 0c7.333 0 14.103 1.227 20.306 3.678 6.207 2.455 11.548 5.85 16.02 10.191 4.471 4.342 7.957 9.429 10.452 15.256 2.5 5.831 3.748 12.121 3.748 18.875 0 6.753-1.248 13.046-3.748 18.875-2.495 5.83-5.98 10.914-10.452 15.255-4.472 4.342-9.813 7.74-16.02 10.191C472.599 94.773 465.829 96 458.496 96c-7.414 0-14.204-1.227-20.367-3.679-6.166-2.452-11.463-5.849-15.894-10.19-4.436-4.342-7.901-9.427-10.397-15.256-2.5-5.83-3.747-12.122-3.747-18.875zm135.158 24.641h5.431c4.105 0 7.768-.637 10.988-1.913 3.22-1.273 5.934-3.028 8.15-5.26 2.215-2.23 3.903-4.882 5.07-7.951 1.165-3.067 1.752-6.435 1.752-10.102 0-3.587-.603-6.934-1.813-10.043-1.206-3.108-2.915-5.778-5.13-8.01-2.215-2.23-4.93-3.985-8.15-5.26-3.22-1.275-6.842-1.914-10.867-1.914h-5.431V72.64zm-23.665-70.3h35.014c6.196 0 12.013 1.237 17.445 3.707 5.436 2.472 10.184 5.76 14.248 9.864 4.065 4.105 7.261 8.887 9.597 14.346 2.336 5.461 3.502 11.179 3.502 17.157a43.518 43.518 0 0 1-3.441 17.037c-2.292 5.46-5.472 10.263-9.537 14.406-4.065 4.145-8.813 7.454-14.248 9.923-5.432 2.472-11.29 3.707-17.566 3.707h-35.014V2.34zM676.85 32.925c-5.439-6.673-12.16-10.01-20.16-10.01-3.52 0-6.782.644-9.779 1.93-3 1.287-5.582 3.035-7.74 5.245-2.162 2.213-3.86 4.845-5.103 7.9-1.239 3.057-1.858 6.352-1.858 9.89 0 3.617.62 6.955 1.858 10.01 1.243 3.056 2.961 5.71 5.163 7.96 2.198 2.251 4.78 4.02 7.74 5.306 2.957 1.287 6.158 1.93 9.599 1.93 7.52 0 14.282-3.215 20.28-9.649v27.98l-2.398.845c-3.6 1.284-6.961 2.23-10.082 2.833-3.12.603-6.202.905-9.239.905-6.242 0-12.224-1.187-17.942-3.558-5.722-2.37-10.761-5.708-15.12-10.01-4.36-4.3-7.861-9.407-10.503-15.316-2.637-5.91-3.96-12.363-3.96-19.357 0-6.995 1.3-13.406 3.9-19.236 2.598-5.829 6.083-10.855 10.442-15.076 4.36-4.22 9.419-7.517 15.181-9.889C642.886 1.188 648.928 0 655.25 0c3.6 0 7.137.383 10.622 1.147 3.476.764 7.137 1.95 10.977 3.556v28.222zm72.636 43.901h-33.78l-5.426 15.662h-25.215L719.687 2.34h25.817l34.623 90.147h-25.215l-5.427-15.662zm-6.275-17.814l-10.617-30.009-10.613 30.009h21.23zm97.84-33.203c-2.563-2.09-5.122-3.637-7.686-4.643-2.563-1.004-5.042-1.508-7.446-1.508-3.043 0-5.522.724-7.446 2.171-1.92 1.448-2.883 3.338-2.883 5.668 0 1.61.484 2.937 1.443 3.98.96 1.047 2.224 1.95 3.783 2.714 1.56.765 3.32 1.428 5.283 1.99 1.964.564 3.903 1.167 5.827 1.81 7.686 2.573 13.309 6.01 16.872 10.31 3.563 4.303 5.347 9.91 5.347 16.824 0 4.665-.78 8.886-2.344 12.664-1.56 3.78-3.843 7.016-6.846 9.708-3 2.695-6.687 4.785-11.05 6.272C829.541 95.255 824.6 96 819.072 96c-11.45 0-22.059-3.417-31.825-10.25l10.09-19.057c3.52 3.136 7.002 5.469 10.45 6.995 3.439 1.529 6.842 2.292 10.205 2.292 3.843 0 6.707-.884 8.586-2.653 1.884-1.768 2.823-3.778 2.823-6.03 0-1.367-.24-2.552-.72-3.558-.48-1.005-1.28-1.93-2.403-2.774-1.12-.845-2.58-1.628-4.383-2.352-1.8-.724-3.983-1.526-6.542-2.412a130.27 130.27 0 0 1-8.95-3.196c-2.923-1.164-5.523-2.713-7.806-4.643-2.284-1.93-4.123-4.36-5.523-7.297-1.404-2.934-2.103-6.651-2.103-11.155 0-4.502.74-8.582 2.223-12.242 1.48-3.657 3.56-6.793 6.243-9.406 2.683-2.612 5.966-4.644 9.85-6.091C813.168.724 817.511 0 822.314 0c4.483 0 9.17.624 14.053 1.87a61.965 61.965 0 0 1 14.052 5.487l-9.37 18.452zm62.926-3.621v70.3h-23.538v-70.3h-19.332V2.34h62.202v19.847h-19.332zm78.604 3.621c-2.564-2.09-5.127-3.637-7.687-4.643-2.564-1.004-5.047-1.508-7.447-1.508-3.043 0-5.527.724-7.446 2.171-1.924 1.448-2.884 3.338-2.884 5.668 0 1.61.48 2.937 1.444 3.98.96 1.047 2.22 1.95 3.78 2.714 1.563.765 3.323 1.428 5.286 1.99a143.92 143.92 0 0 1 5.827 1.81c7.687 2.573 13.31 6.01 16.873 10.31 3.564 4.303 5.343 9.91 5.343 16.824 0 4.665-.78 8.886-2.34 12.664-1.563 3.78-3.843 7.016-6.846 9.708-3.004 2.695-6.687 4.785-11.05 6.272C971.07 95.255 966.127 96 960.6 96c-11.45 0-22.06-3.417-31.827-10.25l10.086-19.057c3.524 3.136 7.007 5.469 10.45 6.995 3.444 1.529 6.847 2.292 10.21 2.292 3.844 0 6.704-.884 8.587-2.653 1.88-1.768 2.824-3.778 2.824-6.03 0-1.367-.24-2.552-.72-3.558-.484-1.005-1.284-1.93-2.404-2.774-1.124-.845-2.583-1.628-4.383-2.352-1.804-.724-3.983-1.526-6.547-2.412a130.176 130.176 0 0 1-8.946-3.196c-2.924-1.164-5.527-2.713-7.807-4.643-2.283-1.93-4.127-4.36-5.527-7.297-1.4-2.934-2.1-6.651-2.1-11.155 0-4.502.74-8.582 2.22-12.242 1.48-3.657 3.564-6.793 6.247-9.406 2.68-2.612 5.963-4.644 9.85-6.091C954.693.724 959.04 0 963.843 0c4.483 0 9.166.624 14.053 1.87a61.941 61.941 0 0 1 14.05 5.487L982.58 25.81z"/>
  </symbol>

  <symbol id="close" viewBox="0 0 24 24">
    <path d="M.546 2.667L2.667.546 23.88 21.759l-2.12 2.121z"/>
    <path d="M21.76.546l2.12 2.121L2.667 23.88.546 21.76z"/>
  </symbol>
  <use xlink:href="#close" x="0" y="0" height="20" width="20"/>

  <!-- social icons -->
  <symbol id="instagram" viewBox="0 0 1000 1000">
    <path d="M292.92 3.5c-53.2 2.51-89.53 11-121.29 23.48-32.87 12.81-60.73 30-88.45 57.82s-44.79 55.7-57.51 88.62c-12.31 31.83-20.65 68.19-23 121.42S-.2 365.18.06 500.96.92 653.76 3.5 707.1c2.54 53.19 11 89.51 23.48 121.28 12.83 32.87 30 60.72 57.83 88.45s55.69 44.76 88.69 57.5c31.8 12.29 68.17 20.67 121.39 23s70.35 2.87 206.09 2.61 152.83-.86 206.16-3.39 89.46-11.05 121.24-23.47c32.87-12.86 60.74-30 88.45-57.84s44.77-55.74 57.48-88.68c12.32-31.8 20.69-68.17 23-121.35 2.33-53.37 2.88-70.41 2.62-206.17s-.87-152.78-3.4-206.1-11-89.53-23.47-121.32c-12.85-32.87-30-60.7-57.82-88.45s-55.74-44.8-88.67-57.48c-31.82-12.31-68.17-20.7-121.39-23S634.83-.2 499.04.06 346.25.9 292.92 3.5m5.84 903.88c-48.75-2.12-75.22-10.22-92.86-17-23.36-9-40-19.88-57.58-37.29s-28.38-34.11-37.5-57.42c-6.85-17.64-15.1-44.08-17.38-92.83-2.48-52.69-3-68.51-3.29-202s.22-149.29 2.53-202c2.08-48.71 10.23-75.21 17-92.84 9-23.39 19.84-40 37.29-57.57s34.1-28.39 57.43-37.51c17.62-6.88 44.06-15.06 92.79-17.38 52.73-2.5 68.53-3 202-3.29s149.31.21 202.06 2.53c48.71 2.12 75.22 10.19 92.83 17 23.37 9 40 19.81 57.57 37.29s28.4 34.07 37.52 57.45c6.89 17.57 15.07 44 17.37 92.76 2.51 52.73 3.08 68.54 3.32 202s-.23 149.31-2.54 202c-2.13 48.75-10.21 75.23-17 92.89-9 23.35-19.85 40-37.31 57.56s-34.09 28.38-57.43 37.5c-17.6 6.87-44.07 15.07-92.76 17.39-52.73 2.48-68.53 3-202.05 3.29s-149.27-.25-202-2.53m407.6-674.61a60 60 0 1059.88-60.1 60 60 0 00-59.88 60.1M243.27 500.5c.28 141.8 115.44 256.49 257.21 256.22S757.02 641.3 756.75 499.5 641.29 242.98 499.5 243.26 243 358.72 243.27 500.5m90.06-.18a166.67 166.67 0 11167 166.34 166.65 166.65 0 01-167-166.34"/>
  </symbol>

  <symbol id="instagram-circle" viewBox="0 0 54 54">
    <circle cx="27.5" cy="27.5" r="27"/>
    <use xlink:href="#instagram" fill="currentColor" x="13" y="9" width="30" height="36"/>
  </symbol>

  <symbol id="twitter" viewBox="0 0 248 204">
    <path d="M221.95 51.29c.15 2.17.15 4.34.15 6.53 0 66.73-50.8 143.69-143.69 143.69v-.04c-27.44.04-54.31-7.82-77.41-22.64 3.99.48 8 .72 12.02.73 22.74.02 44.83-7.61 62.72-21.66-21.61-.41-40.56-14.5-47.18-35.07a50.338 50.338 0 0022.8-.87C27.8 117.2 10.85 96.5 10.85 72.46v-.64a50.18 50.18 0 0022.92 6.32C11.58 63.31 4.74 33.79 18.14 10.71a143.333 143.333 0 00104.08 52.76 50.532 50.532 0 0114.61-48.25c20.34-19.12 52.33-18.14 71.45 2.19 11.31-2.23 22.15-6.38 32.07-12.26a50.69 50.69 0 01-22.2 27.93c10.01-1.18 19.79-3.86 29-7.95a102.594 102.594 0 01-25.2 26.16z"/>
  </symbol>

  <symbol id="twitter-circle" viewBox="0 0 54 54">
    <circle cx="27" cy="27" r="27"/>
    <use xlink:href="#twitter" fill="currentColor" x="12" y="11" width="30" height="36"/>
  </symbol>

  <symbol id="facebook" viewBox="0 0 10 18">
    <path d="M5.903 18V9.742H8.56l.446-3.06H5.903V4.273c0-.87.446-1.37 1.328-1.37h1.992V.146S8.331 0 7.044 0C4.13 0 2.656 1.618 2.656 4.036v2.645H0v3.06h2.656V18h3.247z">
    </path>
  </symbol>

  <symbol id="facebook-circle" viewBox="0 0 54 54">
    <circle cx="27" cy="27" r="27"/>
    <use xlink:href="#facebook" fill="currentColor" x="17" y="10" width="20" height="36"/>
  </symbol>

  <symbol id="youtube" viewBox="0 0 156.23 109.18">
    <path d="M152.76 17.07c-1.82-6.73-7.07-12-13.8-13.8-9.04-3.49-96.6-5.2-122 .1-6.73 1.82-12 7.07-13.8 13.8-4.08 17.9-4.39 56.6.1 74.9 1.82 6.73 7.07 12 13.8 13.8 17.9 4.12 103 4.7 122 0 6.73-1.82 12-7.07 13.8-13.8 4.35-19.5 4.66-55.8-.1-75zm-89.8 60.9v-46.8l40.8 23.4-40.8 23.4z"/>
  </symbol>

  <symbol id="youtube-circle" viewBox="0 0 156.26 156.26">
    <circle cx="78.13" cy="78.13" r="78.13"/>
    <use xlink:href="#youtube" fill="currentColor" x="29" y="42" width="98.4" height="68.7833"/>
  </symbol>

  <symbol id="rss-circle" viewBox="0 0 54 54">
    <circle cx="27.5" cy="27.5" r="27"/>
    <path fill="currentColor" d="M 34.42,21.55 C 29.07,16.2 21.94,13.25 14.36,13.25 v 5.58 c 6.09,0 11.81,2.37 16.11,6.67 4.3,4.3 6.67,10.02 6.67,16.11 h 5.58 C 42.73,34.02 39.78,26.9 34.42,21.55 Z"/>
    <path fill="currentColor" d="m 14.31,22.68 v 5.58 c 7.36,0 13.34,5.99 13.34,13.34 h 5.58 c 0,-10.43 -8.49,-18.92 -18.92,-18.92 z"/>
    <circle fill="currentColor" cx="18.27" cy="37.759998" r="3.99"/>

    <use xlink:href="#rss" fill="currentColor" x="0" y="0" width="98.4" height="68.7833"/>
  </symbol>

  <symbol id="email" viewBox="0 0 16 14">
    <path d="M7.987 7.667c-.18 0-.374-.051-.582-.152a4.248 4.248 0 0 1-.611-.365 10.459 10.459 0 0 1-.587-.448 9.824 9.824 0 0 0-.504-.389c-.7-.534-1.392-1.06-2.079-1.581-.685-.522-1.385-1.049-2.096-1.588a5.312 5.312 0 0 1-.959-1.008 4.386 4.386 0 0 1-.391-.651A1.378 1.378 0 0 1 .017.886c0-.238.104-.445.312-.622C.538.089.76 0 .998 0H15.01c.237 0 .458.089.664.264.206.177.309.384.309.622 0 .179-.054.379-.161.599a4.386 4.386 0 0 1-.391.651 4.658 4.658 0 0 1-.494.587 5.454 5.454 0 0 1-.465.421 215.19 215.19 0 0 0-2.096 1.583l-2.079 1.586a8.722 8.722 0 0 0-.5.389 8.63 8.63 0 0 1-.586.448 4.474 4.474 0 0 1-.617.365 1.327 1.327 0 0 1-.572.152h-.035zm0 1.987c.318 0 .622-.044.911-.134.29-.089.568-.206.834-.348.266-.141.524-.304.773-.485.249-.182.491-.37.729-.561a96.46 96.46 0 0 1 2.188-1.697 536.201 536.201 0 0 1 2.4-1.797c.061-.043.121-.094.178-.153v7.858a.97.97 0 0 1-.29.704.95.95 0 0 1-.7.295H.998a.961.961 0 0 1-.703-.295.963.963 0 0 1-.295-.704V4.479c.057.059.117.11.178.153a612.894 612.894 0 0 1 2.4 1.797 94.28 94.28 0 0 1 2.188 1.697c.225.181.463.361.712.543.248.183.506.348.773.495.265.147.545.267.838.356.292.09.591.134.898.134z"/>
  </symbol>

  <symbol id="website" viewBox="0 0 16 16">
    <path d="M14.722 7.407l-2.259 2.259a5.667 5.667 0 0 0-.334-2.481l1.186-1.204A2.248 2.248 0 0 0 14 4.333a2.25 2.25 0 0 0-.685-1.648A2.25 2.25 0 0 0 11.667 2c-.643 0-1.192.228-1.649.685l-2.5 2.481a2.249 2.249 0 0 0-.686 1.648c0 .643.229 1.198.686 1.667a.961.961 0 0 1 .297.704.957.957 0 0 1-.297.703.957.957 0 0 1-.703.297.954.954 0 0 1-.703-.297c-.841-.852-1.26-1.876-1.26-3.074 0-1.197.419-2.216 1.26-3.055l2.481-2.481C9.444.426 10.469 0 11.667 0c1.197 0 2.215.426 3.055 1.278C15.574 2.117 16 3.136 16 4.333c0 1.198-.426 2.222-1.278 3.074M9.888 12.24l-2.5 2.5C6.549 15.58 5.531 16 4.332 16c-1.196 0-2.22-.42-3.073-1.26C.419 13.888 0 12.864 0 11.666c0-1.197.419-2.216 1.259-3.055l2.277-2.278a5.74 5.74 0 0 0 .334 2.5l-1.185 1.185A2.244 2.244 0 0 0 2 11.666c0 .642.227 1.192.685 1.648A2.246 2.246 0 0 0 4.332 14c.643 0 1.192-.229 1.65-.686l2.481-2.481a2.25 2.25 0 0 0 .684-1.648c0-.642-.228-1.192-.684-1.649a.965.965 0 0 1-.296-.712c0-.278.098-.516.296-.713a.968.968 0 0 1 .713-.297c.277 0 .516.099.712.297.839.852 1.259 1.877 1.259 3.074 0 1.198-.42 2.216-1.259 3.055"/>
  </symbol>

  <symbol id="comments" viewBox="0 0 54 54">
    <circle cx="27.49" cy="27.51" r="26.51"/>
    <ellipse fill="currentColor" cx="27.49" cy="25.24" rx="13.75" ry="11.45"/>
    <path fill="currentColor" d="m 24.17,33.03 2.37,8.88 c 0,0 -11.85,-4.3 -12.8,-15.3 -0.4,-4.66 12.8,-1.55 12.8,-1.55 z"/>
  </symbol>

  <symbol id="chevron" viewBox="0 0 11 14">
    <path d="M2 13l6-6-6-6" stroke="currentColor" stroke-width="3" fill="none"/>
  </symbol>

  <symbol id="share" viewBox="0 0 54 54">
    <circle cx="27" cy="27" r="27"/>
    <path fill="currentColor" d="M 44.09,25.07 27,13 v 7.26 C 11.29,20.37 10.44,38 10.44,38 c 0,0 4.1,-9.87 16.56,-8.14 v 7.17 L 44.09,25.06 Z"/>
  </symbol>

  <!-- light -->
  <symbol id="light" viewBox="0 0 16 16">
    <path d="M10.17 5.308c.46.415.977.805 1.207 1.407.259.672.278 1.39.023 2.07-.507 1.34-1.739 2.332-3.118 2.628-1.437.308-2.793-.254-3.51-1.592-.438-.815-.555-1.807-.255-2.691.28-.826.802-1.255 1.493-1.704.69-.446 1.434-.9 2.274-.922.741-.02 1.348.318 1.887.804M2.332 13.392a.494.494 0 01-.466-.254c-.087-.135-.09-.23-.081-.39.022-.397.386-.635.649-.88.205-.191.444-.338.68-.486a4.11 4.11 0 01.792-.401.875.875 0 01.7.021c.193.088.302.171.342.392.033.173-.09.426-.152.51-.138.189-.317.309-.482.42-.302.21-.614.407-.93.597-.25.15-.56.38-.852.448a.912.912 0 01-.2.023M3.505 7.854a1.011 1.011 0 01-.188.54.561.561 0 01-.415.2c-.29.022-.591-.057-.88-.077a6.304 6.304 0 00-.756-.02c-.224.011-.451.045-.674.01-.206-.033-.404-.195-.514-.392a.565.565 0 01-.04-.488c.108-.24.376-.299.584-.344.277-.06.558-.09.837-.112.252-.02.503-.027.755-.02.238.006.482 0 .718.037.171.027.365.075.478.233.079.11.106.27.095.433M10.995 4.376c.078-.191.241-.405.392-.545.195-.176.346-.276.53-.407.178-.124.352-.276.519-.412.153-.127.206-.177.376-.281.153-.094.208-.133.357-.216a.577.577 0 01.413-.092c.198.017.296.068.423.257.105.157.18.314.105.492-.062.148-.169.272-.363.397-.111.072-.2.141-.304.226-.139.113-.284.235-.427.33-.377.257-.683.586-1.112.761-.339.14-.763.164-.917-.238a.36.36 0 01.008-.272M14.042 12.469c.067.12.135.259.128.4a.578.578 0 01-.167.362.533.533 0 01-.23.153c-.099.03-.237.056-.328.053a.763.763 0 01-.412-.142c-.08-.061-.593-.397-.693-.48-.237-.198-.314-.265-.557-.455-.116-.091-.235-.19-.35-.274a1.181 1.181 0 01-.277-.264.502.502 0 01-.079-.346c.017-.123.01-.23.108-.36a.936.936 0 01.265-.253c.084-.053.266-.057.316-.055.167.008.23.018.354.073.09.04.277.151.357.209.234.169.343.289.623.496.24.177.782.599.942.883M1.961 3.079a.798.798 0 01.012-.265c.078-.28.259-.445.539-.52a.655.655 0 01.403.019c.137.06.359.243.47.328.167.127.302.28.458.42.305.277.598.568.866.882.081.095.162.194.214.307a.52.52 0 01.04.364c-.055.19-.25.31-.444.34a1.083 1.083 0 01-.667-.132c-.204-.107-.383-.257-.56-.405-.262-.22-.525-.438-.786-.659a2.995 2.995 0 01-.42-.412.651.651 0 01-.125-.267M8.594.233c.021.022.038.049.053.076a.852.852 0 01.074.343c.056.78.033 1.5-.174 2.255a.598.598 0 01-.11.244c-.054.06-.11.147-.229.193a.955.955 0 01-.425.048.49.49 0 01-.345-.231c-.071-.125-.121-.345-.132-.533-.022-.357-.091-.626-.126-.982-.054-.552-.048-1.354.523-1.589a.864.864 0 01.651.014.627.627 0 01.24.162M12.44 8.167c-.02-.168.054-.329.163-.473a.782.782 0 01.325-.247c.461-.198 1.187-.175 1.587-.192.192-.006.416-.028.575-.024.133.004.258.047.384.08.196.053.38.115.43.31a.734.734 0 01-.101.572c-.05.081-.103.194-.203.237-.14.062-.3.102-.455.122-.165.022-.33-.005-.494.01-.125.012-.249-.004-.372.004a17.71 17.71 0 01-1.13.034c-.11 0-.225-.007-.33-.034a.504.504 0 01-.38-.399M7.229 15.198c-.002-.274.028-.594.035-.833.009-.278-.01-.554-.022-.833-.013-.324.03-.658.291-.879.234-.198.536-.258.787-.164.183.07.225.26.253.339.11.316.07.568.075.911.006.342-.018.85-.043 1.184-.019.267-.044.597-.212.824-.179.243-.772.359-1.018.128-.158-.149-.144-.48-.146-.677"/>
  </symbol>

  <!-- dark -->
  <symbol id="dark" viewBox="0 0 17 18">
    <path d="M16.065 11.558c-1.057 2.339-2.947 4.307-5.325 5.224-2.661 1.026-5.749.737-8.15-.814-.54-.349-1.105-.685-1.565-1.133C.698 14.518.007 13.85 0 13.353c-.009-.741 1.087-.325 1.492-.218 1.63.424 2.613.637 4.083.323a8.168 8.168 0 003.706-1.881c1.4-1.256 2.346-3.006 2.757-4.831.468-2.08-.013-3.844-.582-5.834-.049-.17-.097-.346-.059-.519.229-1.053 2.126.312 2.538.594a6.431 6.431 0 012.149 2.45c.33.669.591 1.376.74 2.107.406 2.008.093 4.13-.759 6.014"/>
  </symbol>

  <!-- auto -->
  <symbol id="auto" viewBox="0 0 19 17">
    <path d="M12.01 4.15s-.478.868-.517.957c-.134.303-.332.568-.515.868a4.878 4.878 0 01-1.142 1.31c-.233.182-1.238.634-1.238.634s.963.32 1.208.455c.313.172.532.248.847.539.535.497 1.133 1.534 1.44 2.23.29-.793.618-2.044 1.293-2.58.633-.503 1.408-.81 2.204-.954a19.918 19.918 0 01-1.727-.856c-.563-.312-1.034-.741-1.323-1.315-.192-.381-.35-.841-.53-1.288m5.852 3.886c-.147.107-.331.16-.511.199-.705.15-1.45.136-2.121.397-.893.349-1.546 1.156-1.918 2.039-.372.883-.5 1.848-.611 2.8-.047.407-.162.899-.555 1.012-.35.1-.706-.193-.831-.533-.125-.341-.09-.715-.1-1.077-.028-1.07-.483-2.11-1.202-2.9-.72-.791-1.693-1.334-2.73-1.595-.44-.111-.992-.187-1.32-.537-.321-.344.529-.501.719-.534.607-.105 1.709-.194 2.217-.484.514-.294 1.068-1.167 1.499-1.977A10.04 10.04 0 0011.45 1.71c.046-.286.082-.582.232-.831.149-.248.45-.431.726-.346.358.11.458.56.489.933.104 1.28.118 2.656.86 3.704.862 1.215 2.44 1.634 3.884 2.003.136.036.28.076.37.18.147.17.093.446-.063.607a.871.871 0 01-.086.075M3.061 1.82s-.239.435-.259.479c-.067.152-.166.285-.258.435a2.443 2.443 0 01-.57.655c-.117.09-.62.317-.62.317s.481.16.603.227c.158.087.267.125.424.27.268.249.568.768.722 1.116.145-.396.31-1.022.646-1.29a2.478 2.478 0 011.103-.478 10.188 10.188 0 01-.864-.428 1.574 1.574 0 01-.662-.658c-.096-.191-.175-.42-.265-.645M5.99 3.764a.664.664 0 01-.256.1c-.353.075-.725.068-1.06.199-.448.175-.775.578-.96 1.02-.187.442-.25.924-.306 1.4-.025.205-.08.45-.279.508-.173.05-.352-.097-.415-.268-.062-.17-.045-.357-.049-.54a2.282 2.282 0 00-.603-1.45 2.755 2.755 0 00-1.365-.797C.476 3.88.2 3.842.036 3.668c-.162-.173.264-.251.36-.268.303-.053.854-.098 1.108-.242.257-.148.535-.584.75-.99.26-.49.44-1.021.527-1.568.023-.143.041-.292.116-.416.074-.123.225-.216.363-.173.18.055.23.28.244.467.053.64.06 1.329.431 1.854.431.607 1.222.817 1.943 1.002.068.017.14.038.186.09.073.084.046.223-.032.303a.292.292 0 01-.043.037M6.114 11.631s-.238.435-.258.48c-.067.151-.167.284-.258.433-.17.277-.365.494-.57.656-.118.091-.62.317-.62.317s.481.16.603.227c.158.087.267.124.424.27.268.25.568.767.722 1.116.144-.396.308-1.022.645-1.29a2.498 2.498 0 011.104-.479 9.897 9.897 0 01-.864-.428 1.56 1.56 0 01-.662-.657c-.096-.19-.176-.42-.266-.645m2.928 1.944a.658.658 0 01-.255.1c-.354.075-.726.067-1.062.2-.446.173-.773.576-.96 1.02-.185.441-.249.923-.304 1.4-.025.203-.082.45-.279.506-.173.051-.353-.097-.416-.267-.062-.17-.044-.357-.048-.539a2.285 2.285 0 00-.603-1.45 2.774 2.774 0 00-1.365-.799c-.22-.055-.497-.093-.66-.268-.162-.172.263-.25.36-.267.303-.053.853-.098 1.107-.243.258-.147.536-.583.751-.988.26-.49.44-1.022.527-1.57.022-.142.041-.29.115-.415.075-.124.226-.216.363-.174.18.056.23.281.245.468.052.641.06 1.328.431 1.853.431.608 1.221.818 1.943 1.003.068.017.14.037.186.09.072.084.045.222-.032.302a.307.307 0 01-.044.038"/>
  </symbol>
</svg>