<svg xmlns="http://www.w3.org/2000/svg">
  <symbol id="notable" viewBox="0 0 70 16">
    <path d="M2.208 15.975c-.026.038-.054.024-.146.015a2.41 2.41 0 0 1-1.352-.58A2.35 2.35 0 0 1 0 13.685V7.342 4.185a2.22 2.22 0 0 1 .253-1.15.991.991 0 0 1 .78-.515 1.126 1.126 0 0 1 .551.15 3.273 3.273 0 0 1 1.24 1.53l.864 1.583 1.984 3.633.432.79a69.675 69.675 0 0 1-.077-5.993c.014-.382.053-.763.063-1.146a1.365 1.365 0 0 1 .069-.689c.268-.442 1.068-.513 1.527-.416.515.108.594.798.615 1.225 0 0 .366 7.507-.305 10.803-.04.197-.396.312-.554.326-.988.093-1.534-.836-1.99-1.544q-.704-1.095-1.395-2.2c-.337-.54-.671-1.08-.997-1.626a39.238 39.238 0 0 1-.418-.716c-.077-.135-.322-.433-.322-.588q0 .937-.008 1.874-.005.754-.017 1.507c-.01.609-.075 1.216-.103 1.827q-.049 1.022-.013 2.044.008.246.022.49a1.782 1.782 0 0 1 .034.532.324.324 0 0 1-.027.059zM18.15 3.07c-.8-2.28-2.594-2.013-2.594-2.013a4.911 4.911 0 0 0-2.672.931 3.762 3.762 0 0 0-.933.757 4.567 4.567 0 0 0-.588 1.09 10.325 10.325 0 0 0-.607 2.023 12.315 12.315 0 0 0-.204 3.314 3.557 3.557 0 0 0 .5 1.473 5.142 5.142 0 0 0 1.693 1.822 2.922 2.922 0 0 0 .873.414l.044.01a4.86 4.86 0 0 0 1.573-.037 3.812 3.812 0 0 0 .588-.132 2.107 2.107 0 0 0 .235-.082 3.63 3.63 0 0 0 1.722-1.932 9.997 9.997 0 0 0 .852-3.123 10.85 10.85 0 0 0-.481-4.515zm-1.915 3.71s-.735 3.686-1.629 4.244a.703.703 0 0 1-.847-.03 1.835 1.835 0 0 1-.532-.712 4.907 4.907 0 0 1-.266-2.507 8.899 8.899 0 0 1 .702-2.75 4.242 4.242 0 0 1 .833-1.29 2.394 2.394 0 0 1 .583-.439c.195-.102.654-.315.86-.21a.287.287 0 0 1 .13.225c.085.61.13 1.226.175 1.84a6.114 6.114 0 0 1-.009 1.629zM28.389 2.197c0-1.261-1.6-1.334-1.6-1.334a7.143 7.143 0 0 0-1.447.18 9.33 9.33 0 0 1-2.567-.018 5.815 5.815 0 0 0-1.662-.138 1.054 1.054 0 0 0-.814.6c-.063.22.17.476.31.62a4.057 4.057 0 0 0 .614.54 3.752 3.752 0 0 0 1.704.497 67.398 67.398 0 0 0-.795 7.322c.102.321.267.389.267.389 1.358.873 2.11.533 2.11.533.655-.218.46-1.091.46-1.091a14.16 14.16 0 0 1-.145-1.711c-.037-.729.36-3.925.553-5.419h.005a11.488 11.488 0 0 1 1.892 0c1.26 0 1.115-.97 1.115-.97zM36.666 7.65a57.264 57.264 0 0 0-.662-3.048c-.124-.506-.288-1.012-.387-1.522a9.152 9.152 0 0 0-.284-1.148A2.884 2.884 0 0 0 33.92.1a1.59 1.59 0 0 0-1.752.544 3.152 3.152 0 0 0-.274.349 16.626 16.626 0 0 0-1.23 2.31 8.285 8.285 0 0 0-.284 1.032q-.433 1.495-.821 3.003c-.186.719-.366 1.44-.525 2.165-.068.31-.132.62-.186.931a1.738 1.738 0 0 0-.065.67.404.404 0 0 0 .092.175c.23.255.651.148.97.241a.27.27 0 0 1 .084.037.362.362 0 0 1 .084.112.738.738 0 0 0 .371.304.5.5 0 0 0 .402.008c.161-.112.246-.563.315-.752q.175-.481.345-.964.26-.74.506-1.487a8.619 8.619 0 0 0 2.388.012 15.228 15.228 0 0 0 .118 1.633.832.832 0 0 0 .495.803 6.304 6.304 0 0 0 1.233.449.543.543 0 0 0 .158.022.506.506 0 0 0 .208-.07 1.276 1.276 0 0 0 .414-.33.74.74 0 0 0 .154-.497 21.626 21.626 0 0 0-.454-3.152zm-4.19-.686a27.648 27.648 0 0 1 .725-2.904c.284.9.581 2.016.799 2.872a11.647 11.647 0 0 1-1.523.032zM46.406 4.518a3.575 3.575 0 0 0-.164-2.128 2.593 2.593 0 0 0-1.163-1.389 3.154 3.154 0 0 0-1.283-.355 4.622 4.622 0 0 0-2.4.76q-.377.2-.738.428c-.042.027-.259.127-.271.18a29.612 29.612 0 0 0-.515 3.284 113.487 113.487 0 0 0-.391 4.016q-.062.757-.117 1.515l-.036.513a1.52 1.52 0 0 0-.022.371.113.113 0 0 0 .015.036.279.279 0 0 0 .079.071 9.396 9.396 0 0 0 1.464.91 3.957 3.957 0 0 0 2.064.217 2.88 2.88 0 0 0 2.077-1.233 4.31 4.31 0 0 0 .103-4.84c-.005-.008.184-.219.202-.241a5.45 5.45 0 0 0 1.096-2.115zm-3.342 5.607a1.524 1.524 0 0 1-.517.75.659.659 0 0 1-.467.105c-.018-.003-.197-.038-.197-.066V7.457c0-.067.706.088.787.128a1.489 1.489 0 0 1 .573.748 1.546 1.546 0 0 1 .12.47 3.18 3.18 0 0 1-.3 1.322zm.813-5.959a1.764 1.764 0 0 1-1.684 1.228l.31-2.329a3.385 3.385 0 0 1 1.419-.122 1.629 1.629 0 0 1 .037.394 2.824 2.824 0 0 1-.082.83zM54.403 10.63a11.744 11.744 0 0 0-1.203.334l-1.826.507c.073-.695.134-1.393.142-1.513.061-1.03.085-2.06.156-3.09.043-.635.105-1.27.204-1.9a14.974 14.974 0 0 0 .312-1.88 2.48 2.48 0 0 0-.214-1.136.906.906 0 0 0-.821-.532l-.13.001a1.417 1.417 0 0 0-1.271.877 4.181 4.181 0 0 0-.298 1.341c-.138 1.277-.276 2.556-.313 3.84-.021.724-.01 1.45-.094 2.17-.104.901-.356 1.778-.496 2.674a.433.433 0 0 0-.005.113 1.982 1.982 0 0 0 .048.454.13.13 0 0 0 .039.076.139.139 0 0 0 .081.02 2.234 2.234 0 0 1 1.445.582.23.23 0 0 0 .077.049.242.242 0 0 0 .097.003 25.39 25.39 0 0 0 4.07-.77l.028-.006a1.34 1.34 0 0 0 1.173-1.046 1.051 1.051 0 0 0-1.201-1.168zM64.917 3.563a.634.634 0 0 0-.647-.604 11.907 11.907 0 0 0-1.678.152c-.17.018-1.328.169-2.218.292a2.192 2.192 0 0 0-.513-.124 1.642 1.642 0 0 0-.954.284 1.03 1.03 0 0 0-.34.903 5.404 5.404 0 0 1-.01.148c-.038.49-.164.97-.216 1.458-.073.68-.133 1.361-.19 2.043q-.176 2.146-.302 4.296c-.013.232.498.553.679.632a.84.84 0 0 0 .483.044.92.92 0 0 0 .567.46 30.085 30.085 0 0 0 3.301.154c.614-.087.776-.748.719-1.27a.892.892 0 0 0-.848-.803c-.36-.037-1.541.031-2.418.09.03-.64.088-1.454.158-2.31a46.607 46.607 0 0 0 2.544-.066c.594-.104.594-.465.594-.465a3.216 3.216 0 0 0 0-1.06.853.853 0 0 0-.8-.463c-.499-.001-1.457.061-2.165.113.066-.705.132-1.37.187-1.915 1.398-.182 3.242-.544 3.242-.544.8-.233.825-.465.825-.465a3.84 3.84 0 0 0 0-.98zM67.33 8.133l-.04-.008a1.623 1.623 0 0 1-.747-.343 1.102 1.102 0 0 1-.178-1.314 3.587 3.587 0 0 1 .803-1.185 2.153 2.153 0 0 1 .38-.285 1.3 1.3 0 0 1 .492-.202 1.96 1.96 0 0 1 .764.088 1.669 1.669 0 0 1 .655.3s.522.485.541.784a1.194 1.194 0 0 1-.189.467 3.535 3.535 0 0 1-.68.876 3.147 3.147 0 0 1-.854.662 1.69 1.69 0 0 1-.946.16zM66.539 12.864a.943.943 0 0 1-.243-.666 1.587 1.587 0 0 1 .719-1.253 1.646 1.646 0 0 1 .641-.228 1.486 1.486 0 0 1 .86.242c.251.13.663.312.653.65a1.148 1.148 0 0 1-.328.68s-.77.96-1.617.9a1.018 1.018 0 0 1-.685-.325z"/>
  </symbol>

  <symbol id="asterisk" viewBox="0 0 27 28">
    <path d="M25.648 3.21a2.85 2.85 0 0 0-1.912-.332 6.031 6.031 0 0 0-1.758.604 17.955 17.955 0 0 0-1.908 1.095c-1.434.928-2.738 2.035-4.194 2.93a52.223 52.223 0 0 1-3.284 1.874c-.101.052-.204.101-.305.153.535-3.86 1.267-6.867 1.267-6.867C14.29-.003 13.2 0 13.2 0c-1.041-.047-1.38 1.315-1.586 2.077a61.022 61.022 0 0 0-1.356 6.45c-.062.39-.118.783-.173 1.176-1.552-2.089-3.684-4.92-4.43-5.726a1.19 1.19 0 0 0-1.652-.364 1.064 1.064 0 0 0-.298 1.487c.14.23.293.452.444.673.427.625.875 1.235 1.336 1.835.285.372.58.737.875 1.1.15.934.312 2.099.427 3.35a37.166 37.166 0 0 0-4.473 2.145c-.792.453-1.93.966-2.262 1.882a.56.56 0 0 0-.024.409.443.443 0 0 0 .484.216 1.718 1.718 0 0 0 .64-.352 9.31 9.31 0 0 1 .579-.362 13.25 13.25 0 0 1 1.232-.624 32.411 32.411 0 0 1 3.316-1.176c.216-.07.426-.154.639-.23a17.96 17.96 0 0 1-.37 5.046c-1.467 2.365-.244 2.964-.244 2.964.998.599 2.246-.424 2.246-.424a8.12 8.12 0 0 0 .716-.594c-.023 1.904.003 3.81.13 5.71a1.47 1.47 0 0 0 .428 1.14 1.004 1.004 0 0 0 .646.19 1.35 1.35 0 0 0 1.06-.63 3.387 3.387 0 0 0 .379-1.685c.019-1.12-.16-2.21-.24-3.32a38.68 38.68 0 0 1-.08-3.15c1-.657 2.257-1.55 3.105-2.16l.07.06a55.114 55.114 0 0 0 4.825 3.51q.57.37 1.149.723a5.42 5.42 0 0 0 1.17.639 1.515 1.515 0 0 0 1.056-.027.99.99 0 0 0 .602-.827 1.222 1.222 0 0 0-.199-.656 4.42 4.42 0 0 0-1.535-1.349q-.61-.395-1.217-.793-1.757-1.153-3.493-2.337c-.176-.12-.349-.243-.524-.364.374-.285.752-.564 1.12-.857a54.787 54.787 0 0 0 4.07-3.556 34.624 34.624 0 0 0 2.483-2.655 7.861 7.861 0 0 0 1.936-3.24 2.127 2.127 0 0 0-.56-2.115zM8.232 18.763c.062-.817.188-2.864.134-5.346.293-.12.587-.237.88-.36.154-.065.306-.134.46-.2-.06.61-.117 1.219-.165 1.829a91.382 91.382 0 0 0-.21 3.82l-.205.111c-.334.056-.625.103-.894.146zm3.415-1.779c.035-.828.08-1.656.145-2.482.468.437.94.87 1.423 1.29-.52.4-1.041.8-1.568 1.192zM23.634 5.797a2.325 2.325 0 0 1-.25.59 5.909 5.909 0 0 1-.747 1.001 44.377 44.377 0 0 1-5.053 4.9c-.87.742-1.76 1.462-2.655 2.173-.48-.343-.958-.686-1.429-1.041a36.44 36.44 0 0 1-.934-.727c-.18-.144-.418-.298-.598-.473q.034-.346.071-.689c.596-.249 1.184-.52 1.764-.802a26.51 26.51 0 0 0 3.712-2.121c.681-.48 1.315-1.023 1.988-1.515a37.254 37.254 0 0 1 1.935-1.33q.465-.296.94-.576c.651-.381 1.016-.241 1.198.02a.78.78 0 0 1 .058.59z"/>
  </symbol>

  <symbol id="menu" viewBox="0 0 16 15">
    <path d="M15.6 6a.4.4 0 0 1 .4.4v2.2a.4.4 0 0 1-.4.4H.4a.4.4 0 0 1-.4-.4V6.4A.4.4 0 0 1 .4 6h15.2zm0-6a.4.4 0 0 1 .4.4v2.2a.4.4 0 0 1-.4.4H.4a.4.4 0 0 1-.4-.4V.4A.4.4 0 0 1 .4 0h15.2zm0 12a.4.4 0 0 1 .4.4v2.2a.4.4 0 0 1-.4.4H.4a.4.4 0 0 1-.4-.4v-2.2a.4.4 0 0 1 .4-.4h15.2z"/>
  </symbol>

  <symbol id="search" viewBox="0 0 18 18">
    <path d="M2.25 7.313a5.063 5.063 0 1 1 10.126 0 5.063 5.063 0 0 1-10.126 0m15.618 8.17l-4.336-4.339a7.254 7.254 0 0 0 1.093-3.832 7.312 7.312 0 1 0-7.313 7.313 7.251 7.251 0 0 0 3.833-1.095l4.337 4.338a.45.45 0 0 0 .636 0l1.75-1.75a.45.45 0 0 0 0-.636"/>
  </symbol>

  <symbol id="donate" viewBox="0 0 199.11 199.17">
    <path d="M198.9 93.61C195.52 41.81 150.94 0 99.31 0h-.91C74.71.23 51.64 9.35 33.46 25.68 16.05 41.32 4.55 61.98 1.09 83.86c-4.28 27.05 4.96 49.98 12.06 62.85L2.44 186.42a8.506 8.506 0 0 0 10.23 10.47l39.38-9.65c8.79 4.46 26.8 11.92 48.96 11.92 10.73 0 22.43-1.75 34.52-6.43 40.11-15.54 66.17-56.3 63.38-99.12Zm-30.07 50.74c-9.52 14.82-23.53 26.37-39.44 32.53-34.35 13.3-66.06-2.73-72.07-6.09a8.525 8.525 0 0 0-6.16-.84l-28.55 6.99 7.88-29.22c.6-2.22.27-4.6-.91-6.58-6.01-10.05-15.51-30.5-11.69-54.65C23.24 52.68 54.88 17.42 98.56 17h.76c42.83 0 79.81 34.71 82.62 77.72 1.12 17.11-3.54 34.74-13.11 49.63Z"/>
    <path d="M124.8 61.62c-10.24-1.95-18.95 2.09-24.56 5.94-9.19-6.76-20.38-9.13-30.14-6.05-15.94 5.04-23.52 21.55-22.77 35.25.41 7.55 4.9 16.17 13.73 26.36 9.69 11.2 21.57 20.63 35.3 28.04 1.26.68 2.65 1.02 4.04 1.02s2.91-.37 4.21-1.12c11.02-6.28 20.84-14.2 29.19-23.52 9.96-11.13 18.57-20.75 17.55-34.68-.97-13.2-10.4-28.17-26.54-31.25Zm-3.68 54.59a98.926 98.926 0 0 1-20.86 17.63c-10.15-6.02-19-13.35-26.35-21.85-8.64-9.98-9.54-14.9-9.61-16.17-.31-5.57 2.39-15.41 10.93-18.11 1.21-.38 2.48-.57 3.8-.57 4.95 0 10.42 2.65 14.78 7.36a8.498 8.498 0 0 0 6.17 2.73c2.36 0 4.59-.93 6.21-2.62.31-.32 7.58-7.81 15.44-6.31 8.12 1.55 12.36 10.17 12.77 15.79.47 6.44-3.97 11.72-13.27 22.1Z"/>
  </symbol>

  <symbol id="quiz" viewBox="0 0 198.01 199.12">
    <path d="m196.47 148.85-32.89-46.84a71.113 71.113 0 0 0 6.83-30.46C170.4 32.1 138.3 0 98.85 0S27.29 32.1 27.29 71.55c0 11 2.5 21.42 6.95 30.74l-32.7 46.56c-1.76 2.51-2.04 5.77-.72 8.54s4.03 4.61 7.09 4.82l28.5 1.97 12.38 29.7a8.532 8.532 0 0 0 6.81 5.17c.35.04.69.06 1.04.06 2.67 0 5.2-1.26 6.82-3.43l35.55-47.79 35.55 47.79a8.511 8.511 0 0 0 6.82 3.43c.34 0 .69-.02 1.04-.06a8.494 8.494 0 0 0 6.81-5.17l12.38-29.7 28.5-1.97a8.496 8.496 0 0 0 6.37-13.36ZM98.85 17c30.08 0 54.55 24.47 54.55 54.55s-24.47 54.55-54.55 54.55S44.3 101.63 44.3 71.55 68.77 17 98.85 17ZM58.73 173.56l-8.65-20.75a8.503 8.503 0 0 0-7.26-5.21l-18.71-1.29 20.1-28.62c9.82 11.61 23.25 20.05 38.55 23.58l-24.03 32.3Zm96.45-25.96a8.503 8.503 0 0 0-7.26 5.21l-8.65 20.75-24.07-32.36c15.28-3.59 28.68-12.07 38.46-23.72l20.24 28.82-18.71 1.29Z"/>
    <path d="m73.75 82.51-1.09 17.58a8.002 8.002 0 0 0 11.37 7.74l14.51-6.76 16.5 6.35c2.57.99 5.45.59 7.66-1.05a7.99 7.99 0 0 0 3.19-7.04l-1.4-17.76 10.42-12.48c1.71-2.05 2.29-4.81 1.54-7.37s-2.72-4.58-5.26-5.38l-16.95-5.36-8.03-14a7.984 7.984 0 0 0-6.65-4.01 8.014 8.014 0 0 0-6.92 3.52l-9.88 14.66-16.15 4.89c-2.54.77-4.54 2.75-5.32 5.29s-.26 5.3 1.4 7.37l11.07 13.81Zm16.37-16.87a8.005 8.005 0 0 0 4.31-3.18l4.29-6.37 3.19 5.57c1 1.74 2.61 3.04 4.53 3.65l8.55 2.71-4.87 5.83c-1.34 1.6-2 3.67-1.83 5.75l.66 8.35-7.83-3.01c-.93-.36-1.9-.53-2.87-.53a8 8 0 0 0-3.38.75l-5.4 2.52.45-7.25c.12-1.99-.5-3.95-1.74-5.5l-5.6-6.99 7.55-2.29Z"/>
  </symbol>

  <symbol id="shop" viewBox="0 0 184.37 198.77">
    <path d="m183.67 63.72-5.36-26.82c-1.69-8.45-2.62-13.1-4.76-17.36a35.517 35.517 0 0 0-22.29-18.28C146.66 0 141.92 0 133.3 0H51.08c-8.62 0-13.36 0-17.96 1.26a35.446 35.446 0 0 0-22.29 18.27c-2.14 4.26-3.07 8.91-4.75 17.34l8.33 1.69-8.33-1.67L.7 63.72c-2.12 10.6.59 21.48 7.45 29.84.85 1.03 1.74 2.01 2.68 2.93v25.36c0 33.47 0 51.91 12.51 64.42 12.51 12.51 30.95 12.51 64.42 12.51h8.55c33.47 0 51.91 0 64.42-12.51 12.51-12.51 12.51-30.95 12.51-64.42V96.76c1.04-1 2.04-2.06 2.97-3.2 6.85-8.36 9.57-19.24 7.45-29.84ZM133.3 17c7.14 0 11.08 0 13.46.65 5.03 1.38 9.25 4.84 11.59 9.5 1.11 2.21 1.88 6.07 3.28 13.08l5.36 26.82c1.12 5.59-.31 11.32-3.93 15.73s-8.95 6.93-14.65 6.93c-9.77 0-17.88-7.33-18.85-17.06L124 17h9.29ZM72.37 67.85 77.45 17h29.47L112 67.81c.57 5.67-1.23 11.12-5.05 15.34-3.82 4.23-9.07 6.55-14.77 6.55s-10.94-2.33-14.77-6.55c-3.82-4.22-5.61-9.65-5.05-15.31Zm-54.99-.79 5.36-26.82v-.02c1.4-6.99 2.17-10.84 3.28-13.05 2.34-4.66 6.56-8.12 11.59-9.5 2.39-.66 6.32-.66 13.47-.66h9.29l-4.91 49.12v.06l-.65 6.47a18.89 18.89 0 0 1-18.85 17.06c-5.7 0-11.04-2.53-14.65-6.93s-5.04-10.14-3.93-15.73Zm70.39 114.72h-8.85l.17-32.58c.01-2.62 2.16-4.75 4.77-4.76l16.31-.04c2.6 0 4.75 2.11 4.78 4.72l.46 32.66H87.76Zm68.48-59.93c0 29.87 0 44.87-7.53 52.4-4.91 4.91-12.99 6.62-26.3 7.21l-.46-32.59c-.17-11.85-9.93-21.47-21.78-21.47h-.05l-16.31.04c-11.92.03-21.67 9.75-21.73 21.67l-.17 32.37c-13.46-.58-21.61-2.28-26.55-7.23-7.53-7.53-7.53-22.53-7.53-52.4V105.8c2.63.61 5.35.92 8.11.92 11.24 0 21.31-5.12 27.91-13.25.31.37.62.75.95 1.11 6.99 7.72 16.96 12.15 27.37 12.15s20.39-4.43 27.37-12.15c.33-.36.64-.74.95-1.11 6.6 8.14 16.67 13.25 27.92 13.25 2.66 0 5.29-.29 7.83-.86v15.99Z"/>
  </symbol>

  <symbol id="games" viewBox="0 0 198.01 199.12">
    <path d="m196.47 148.85-32.89-46.84a71.113 71.113 0 0 0 6.83-30.46C170.4 32.1 138.3 0 98.85 0S27.29 32.1 27.29 71.55c0 11 2.5 21.42 6.95 30.74l-32.7 46.56c-1.76 2.51-2.04 5.77-.72 8.54s4.03 4.61 7.09 4.82l28.5 1.97 12.38 29.7a8.532 8.532 0 0 0 6.81 5.17c.35.04.69.06 1.04.06 2.67 0 5.2-1.26 6.82-3.43l35.55-47.79 35.55 47.79a8.511 8.511 0 0 0 6.82 3.43c.34 0 .69-.02 1.04-.06a8.494 8.494 0 0 0 6.81-5.17l12.38-29.7 28.5-1.97a8.496 8.496 0 0 0 6.37-13.36ZM98.85 17c30.08 0 54.55 24.47 54.55 54.55s-24.47 54.55-54.55 54.55S44.3 101.63 44.3 71.55 68.77 17 98.85 17ZM58.73 173.56l-8.65-20.75a8.503 8.503 0 0 0-7.26-5.21l-18.71-1.29 20.1-28.62c9.82 11.61 23.25 20.05 38.55 23.58l-24.03 32.3Zm96.45-25.96a8.503 8.503 0 0 0-7.26 5.21l-8.65 20.75-24.07-32.36c15.28-3.59 28.68-12.07 38.46-23.72l20.24 28.82-18.71 1.29Z"/>
    <path d="m73.75 82.51-1.09 17.58a8.002 8.002 0 0 0 11.37 7.74l14.51-6.76 16.5 6.35c2.57.99 5.45.59 7.66-1.05a7.99 7.99 0 0 0 3.19-7.04l-1.4-17.76 10.42-12.48c1.71-2.05 2.29-4.81 1.54-7.37s-2.72-4.58-5.26-5.38l-16.95-5.36-8.03-14a7.984 7.984 0 0 0-6.65-4.01 8.014 8.014 0 0 0-6.92 3.52l-9.88 14.66-16.15 4.89c-2.54.77-4.54 2.75-5.32 5.29s-.26 5.3 1.4 7.37l11.07 13.81Zm16.37-16.87a8.005 8.005 0 0 0 4.31-3.18l4.29-6.37 3.19 5.57c1 1.74 2.61 3.04 4.53 3.65l8.55 2.71-4.87 5.83c-1.34 1.6-2 3.67-1.83 5.75l.66 8.35-7.83-3.01c-.93-.36-1.9-.53-2.87-.53a8 8 0 0 0-3.38.75l-5.4 2.52.45-7.25c.12-1.99-.5-3.95-1.74-5.5l-5.6-6.99 7.55-2.29Z"/>
  </symbol>

  <symbol id="sparkle" viewBox="0 0 198.35 198.77">
    <path d="M137.93 69.77c-.29-7.37-4.95-13.8-11.86-16.38L97.95 42.88c-.34-.13-.61-.4-.74-.74L85.97 11.9C83.34 4.82 76.76.15 69.2 0c-7.56-.14-14.31 4.28-17.21 11.26L39.55 41.23c-.13.31-.37.55-.67.68L11.08 53.8C4.38 56.67.14 62.97 0 70.25c-.14 7.28 3.87 13.74 10.45 16.85l29.29 13.86c.28.13.51.37.63.66l11.16 27.06c2.81 6.82 9.4 11.26 16.78 11.3h.11c7.34 0 13.92-4.35 16.8-11.11l11.56-27.15c.12-.29.34-.52.63-.65l30.01-14.03c6.68-3.12 10.81-9.9 10.51-17.27Zm-17.71 1.87L90.21 85.67a18.26 18.26 0 0 0-9.07 9.39l-11.56 27.15c-.1.23-.33.77-1.16.77h-.01c-.84 0-1.06-.55-1.16-.78L56.09 95.14c-1.74-4.21-4.96-7.6-9.07-9.54L17.73 71.74c-.2-.1-.74-.35-.72-1.17.02-.82.56-1.05.77-1.14l27.8-11.89c4.41-1.89 7.84-5.36 9.68-9.79L67.7 17.78c.1-.23.32-.78 1.15-.78h.04c.86.02 1.07.58 1.16.82l11.24 30.24c1.85 4.97 5.76 8.89 10.73 10.75l28.12 10.51c.24.09.79.29.82 1.13.03.84-.5 1.09-.73 1.19ZM198.33 149.68a14.158 14.158 0 0 0-9.22-12.73l-18.31-6.84-7.34-19.75c-2.05-5.51-7.17-9.14-13.04-9.25-5.86-.15-11.13 3.32-13.38 8.75s-8.17 19.68-8.17 19.68l-18.12 7.75c-5.21 2.23-8.5 7.13-8.61 12.79-.11 5.66 3.01 10.68 8.12 13.1l19.11 9.04L136.7 190c2.19 5.3 7.31 8.75 13.04 8.78h.08c5.7 0 10.82-3.38 13.06-8.63l7.6-17.84 19.66-9.19c5.19-2.43 8.4-7.7 8.17-13.42Zm-36 7.67a14.145 14.145 0 0 0-7.05 7.3l-5.4 12.67-5.2-12.6a14.192 14.192 0 0 0-7.05-7.42l-14.46-6.84 13.45-5.75c3.42-1.47 6.1-4.17 7.53-7.61l5.87-14.15 5.3 14.27a14.17 14.17 0 0 0 8.34 8.36l13.26 4.95-14.58 6.82Z"/>
  </symbol>

  <symbol id="avatar" viewBox="0 0 199.66 199.66">
    <path d="M173.56 167.05c16.2-17.75 26.09-41.36 26.09-67.23C199.66 44.78 154.88 0 99.83 0S0 44.78 0 99.83c0 24.87 9.14 47.64 24.24 65.13.33.46.7.89 1.13 1.28 18.3 20.49 44.9 33.42 74.47 33.42s54.38-12.07 72.6-31.38c.42-.37.8-.78 1.14-1.22ZM99.83 17c45.67 0 82.83 37.16 82.83 82.83 0 17.5-5.47 33.74-14.77 47.12-10.53-15.26-25.62-26.47-42.98-32.15 11.61-8 19.25-21.39 19.25-36.52 0-24.44-19.89-44.33-44.33-44.33S55.5 53.84 55.5 78.28c0 14.83 7.33 27.97 18.55 36.03-17.3 5.31-32.7 16.1-43.55 30.77C21.98 132.06 17 116.53 17 99.84c0-45.67 37.16-82.83 82.83-82.83ZM72.5 78.27c0-15.07 12.26-27.33 27.33-27.33s27.33 12.26 27.33 27.33-12.26 27.33-27.33 27.33S72.5 93.34 72.5 78.27Zm-30.81 80.48c12.51-19.5 34.64-31.57 57.99-31.16 23.51.41 44.7 12.81 56.62 32.74-14.81 13.83-34.66 22.31-56.47 22.31s-43.17-9.13-58.14-23.9Z"/>
  </symbol>

  <symbol id="newsletters" viewBox="0 0 196.46 159.8" style="&#10;    background-color: revert-layer;&#10;">
    <path d="M168.02 0H28.44C12.76 0 0 12.96 0 28.9v102c0 15.94 12.76 28.9 28.44 28.9h139.58c15.68 0 28.44-12.96 28.44-28.9v-102c0-15.93-12.76-28.9-28.44-28.9Zm-29.64 81.99 41.08-40.76v80.56l-41.08-39.8ZM28.44 17h139.58c3.18 0 6.06 1.36 8.14 3.55l-65.99 65.48c-7.37 7.35-16.52 7.35-23.91-.02L20.22 20.65c2.08-2.24 5-3.65 8.22-3.65ZM17 119.62V41.38l39.95 39.54L17 119.62Zm11.44 23.18c-2.97 0-5.67-1.19-7.7-3.13l48.3-46.8 5.24 5.19c6.94 6.92 15.45 10.39 23.96 10.39s17-3.46 23.93-10.37l4.15-4.12 48.22 46.71c-1.85 1.33-4.09 2.12-6.51 2.12H28.44Z"/>
  </symbol>
</svg>
